<svg id="Layer_1" data-name="Layer 1" xmlns="http://www.w3.org/2000/svg" viewBox="0 0 152.58 168.46"><defs><style>.cls-1,.cls-3{fill:#404146;}.cls-2{fill:#fff;}.cls-3{stroke:#fff;stroke-miterlimit:10;}.cls-4{fill:#0376ab;}</style></defs><title>Artboard 1</title><polygon class="cls-1" points="152 158.76 151 168.46 33.01 168.46 83.2 164.26 54.2 164.26 95 159.46 152 158.76"/><path class="cls-1" d="M152.3,157a11.63,11.63,0,0,1-.4,1.8,18.1,18.1,0,0,1-2.2,5.5c-3,4.2-19.9,2.3-38.1,1.2-21.8-1.3-42.3-10.3-49.2-17.2-22.7-22.7-29.3-14.7-49.2-29.7C3.4,111.16.2,102,0,99c0-.4-.1-1.3.6-1.6a29.73,29.73,0,0,0,14-9.5v-.1c.1-.7,1.1-2,2.6-3.6,1-1.1,2.2-2.4,3.6-3.7a1.38,1.38,0,0,1,.4-.3c.5-.5,1-.9,1.5-1.4s1.2-1.1,1.8-1.6c.4-.3.7-.7,1.1-1s.5-.5.8-.7c2.5-2.2,5.1-4.5,7.6-6.6,8.8-7.5,6-9.9,8.5-13.6s5.5-1.6,6.1-1.1c0,0,3.6,1.9,2.9,8.5-.9,9.5,1.8,13.9,6.7,18.4s17.1.4,17.1.4a5.34,5.34,0,0,1,.2-2.2c1.2-4.2,7.2-7.3,11.4-8.5,15.8-4.5,11.3,10.5,11.3,10.5a25.45,25.45,0,0,0-.1,6.2,35,35,0,0,0,.7,4.5,64.33,64.33,0,0,0,1.7,6.6c.4,1.4.9,2.8,1.4,4.2.7,2,1.6,4,2.4,5.9.6,1.3,1.2,2.7,1.9,4,.9,1.8,1.9,3.6,2.9,5.3.7,1.3,1.5,2.6,2.3,3.8l1.8,2.7c.4.5.7,1.1,1.1,1.6a60.56,60.56,0,0,0,4.9,6c3.3,3.5,33,5,33.3,17.3C152.3,150.56,152.9,153.66,152.3,157Z"/><path class="cls-2" d="M152.3,157a11.63,11.63,0,0,1-.4,1.8c-19.2-.4-40.9-4.3-56.6-10.1a69.5,69.5,0,0,1-13.9-6.6,25.61,25.61,0,0,1-4.2-3.3c-6.2-6.1-13-11.1-20.4-16.3-2.9-2-6-4.1-9.1-6.2-3.9-2.6-7.8-5.4-11.9-8.4a110.31,110.31,0,0,1-21.2-20.2c.1-.7,1.1-2,2.6-3.6,4.5,6,12.1,15.3,19.5,21.5a99.72,99.72,0,0,0,10.2,7.6c2.2,1.5,5,3.5,9.8,7.3s11.5,9.9,22.2,18.1c.8.6,1.6,1.2,2.5,1.8a69.89,69.89,0,0,0,13.9,7.1C113.4,154.56,135.8,156.56,152.3,157Z"/><path class="cls-2" d="M114.1,126h0c-2.1.9-4,0-6.2-2.7a33.55,33.55,0,0,1-2.5-3.7c-.9-1.5-1.8-3.3-2.9-5.3-.4-.8-.8-1.7-1.3-2.6a9.14,9.14,0,0,0-.7-1.4c-.9-1.9-1.7-3.9-2.5-5.9-.6-1.4-1.1-2.7-1.6-4.1-.8-2.1-1.6-4.3-2.3-6.3-.5-1.4-1-2.8-1.5-4.1-1.6-4.4-2.9-7.9-3.8-9-2.2-2.7-13.7.5-13.7.5l-3.5-1s1.5-.6,3.6-1.3c4.3-1.3,11.2-2.8,14.3-.3,1.4,1.2,3.1,5.1,5.1,10.2.5,1.3,1,2.7,1.5,4.1.7,2,1.5,4.2,2.2,6.3l1.5,4.2c.7,2.1,1.5,4.1,2.2,6,.5,1.5,1.1,2.8,1.6,4.1.9,2.1,1.7,4,2.5,5.5a11.66,11.66,0,0,0,1.8,2.6,9.43,9.43,0,0,0,1,1,5.4,5.4,0,0,0,4.1,1.6C113.4,124.86,113.7,125.46,114.1,126Z"/><path class="cls-3" d="M107,123.66c-.8.4-1.8-.2-2.3-1.3h0c-.5-1.1-.3-2.3.5-2.6l5.6-2.6c.8-.4,1.8.2,2.3,1.3h0a2,2,0,0,1-.5,2.7Z"/><path class="cls-3" d="M102,114.46c-.8.4-1.8-.2-2.3-1.3h0c-.5-1.1-.3-2.3.5-2.6l5.6-2.6c.8-.4,1.8.2,2.3,1.3h0c.5,1.1.3,2.3-.5,2.6Z"/><path class="cls-3" d="M98,104.36c-.8.4-1.8-.2-2.3-1.3h0c-.5-1.1-.3-2.3.5-2.6l5.6-2.6c.8-.4,1.8.2,2.3,1.3h0c.5,1.1.3,2.3-.5,2.6Z"/><path class="cls-3" d="M94.2,94.06c-.8.4-1.8-.2-2.3-1.3h0c-.5-1.1-.3-2.3.5-2.6l5.6-2.6c.8-.4,1.8.2,2.3,1.3h0c.5,1.1.3,2.3-.5,2.6Z"/><path class="cls-2" d="M95.3,147.56v1.2a69.5,69.5,0,0,1-13.9-6.6v-1.6c-.1-5.1-.4-13.5-1.9-16.6-1.6-3.5-37.7-32.7-55.2-46.8.4-.3.7-.7,1.1-1s.5-.5.8-.7c17.3,14.2,49.2,40.3,58.2,46.4C94.1,128.16,95.3,141.56,95.3,147.56Z"/><path class="cls-2" d="M51.2,104.46a371.43,371.43,0,0,1-30-24.4c.5-.5,1-.9,1.5-1.4Z"/><path class="cls-4" d="M8.5,84.46s-20.3-25,2.1-48.7S15,.06,15,.06s29.2-2.8,34.2,29.2c0,0-.2,8.3,6.7,9.2s4-9.5,4-9.5,18.6,17-2.4,32.7c0,0,1.8-17.1-12.6-16.1-13.4.9-5,12.8-13.4,18.3S8.5,84.46,8.5,84.46Z"/></svg>