<?xml version="1.0" encoding="utf-8"?>
<!-- Generator: Adobe Illustrator 23.1.1, SVG Export Plug-In . SVG Version: 6.00 Build 0)  -->
<svg version="1.1" id="Layer_1" xmlns="http://www.w3.org/2000/svg" xmlns:xlink="http://www.w3.org/1999/xlink" x="0px" y="0px"
	 viewBox="0 0 152.6 113.7" style="enable-background:new 0 0 152.6 113.7;" xml:space="preserve">
<style type="text/css">
	.st0{fill:#404146;}
	.st1{fill:#FFFFFF;}
	.st2{fill:#404146;stroke:#FFFFFF;stroke-miterlimit:10;}
</style>
<g>
	<g>
		<g>
			<path class="st0" d="M152.3,103.8c-0.1,0.6-0.2,1.2-0.4,1.8c-0.5,2-1.2,4-2.2,5.5c-3,4.2-19.9,2.3-38.1,1.2
				C89.8,111,69.3,102,62.4,95.1C39.7,72.4,33.1,80.4,13.2,65.4C3.4,58,0.2,48.8,0,45.8c0-0.4-0.1-1.3,0.6-1.6
				c9.5-3.2,14-9.5,14-9.5v-0.1c0.1-0.7,1.1-2,2.6-3.6c1-1.1,2.2-2.4,3.6-3.7c0.1-0.1,0.2-0.2,0.4-0.3c0.5-0.5,1-0.9,1.5-1.4
				c0.6-0.5,1.2-1.1,1.8-1.6c0.4-0.3,0.7-0.7,1.1-1c0.3-0.2,0.5-0.5,0.8-0.7c2.5-2.2,5.1-4.5,7.6-6.6c8.8-7.5,6-9.9,8.5-13.6
				S48,0.5,48.6,1c0,0,3.6,1.9,2.9,8.5c-0.9,9.5,1.8,13.9,6.7,18.4s17.1,0.4,17.1,0.4c-0.1-0.8,0-1.5,0.2-2.2
				c1.2-4.2,7.2-7.3,11.4-8.5c15.8-4.5,11.3,10.5,11.3,10.5c-0.3,1.9-0.3,4-0.1,6.2c0.1,1.5,0.4,3,0.7,4.5c0.4,2.1,1,4.3,1.7,6.6
				c0.4,1.4,0.9,2.8,1.4,4.2c0.7,2,1.6,4,2.4,5.9c0.6,1.3,1.2,2.7,1.9,4c0.9,1.8,1.9,3.6,2.9,5.3c0.7,1.3,1.5,2.6,2.3,3.8
				c0.6,0.9,1.2,1.8,1.8,2.7c0.4,0.5,0.7,1.1,1.1,1.6c1.6,2.2,3.2,4.2,4.9,6c3.3,3.5,33,5,33.3,17.3
				C152.3,97.4,152.9,100.5,152.3,103.8z"/>
			<path class="st1" d="M152.3,103.8c-0.1,0.6-0.2,1.2-0.4,1.8c-19.2-0.4-40.9-4.3-56.6-10.1c-5.5-2-10.2-4.2-13.9-6.6
				c-1.7-1.1-3.1-2.2-4.2-3.3c-6.2-6.1-13-11.1-20.4-16.3c-2.9-2-6-4.1-9.1-6.2c-3.9-2.6-7.8-5.4-11.9-8.4
				C25.1,46.9,18,38.8,14.6,34.5c0.1-0.7,1.1-2,2.6-3.6c4.5,6,12.1,15.3,19.5,21.5c5.1,4.3,6.9,5.3,10.2,7.6c2.2,1.5,5,3.5,9.8,7.3
				c4.9,3.8,11.5,9.9,22.2,18.1c0.8,0.6,1.6,1.2,2.5,1.8c4.2,2.8,8.9,5.2,13.9,7.1C113.4,101.4,135.8,103.4,152.3,103.8z"/>
			<path class="st1" d="M114.1,72.8L114.1,72.8c-2.1,0.9-4,0-6.2-2.7c-0.8-1-1.6-2.2-2.5-3.7s-1.8-3.3-2.9-5.3
				c-0.4-0.8-0.8-1.7-1.3-2.6c-0.2-0.5-0.4-0.9-0.7-1.4c-0.9-1.9-1.7-3.9-2.5-5.9c-0.6-1.4-1.1-2.7-1.6-4.1
				c-0.8-2.1-1.6-4.3-2.3-6.3c-0.5-1.4-1-2.8-1.5-4.1c-1.6-4.4-2.9-7.9-3.8-9c-2.2-2.7-13.7,0.5-13.7,0.5l-3.5-1
				c0,0,1.5-0.6,3.6-1.3c4.3-1.3,11.2-2.8,14.3-0.3c1.4,1.2,3.1,5.1,5.1,10.2c0.5,1.3,1,2.7,1.5,4.1c0.7,2,1.5,4.2,2.2,6.3
				c0.5,1.4,1,2.8,1.5,4.2c0.7,2.1,1.5,4.1,2.2,6c0.5,1.5,1.1,2.8,1.6,4.1c0.9,2.1,1.7,4,2.5,5.5c0.6,1.1,1.2,2,1.8,2.6
				c0.3,0.4,0.7,0.7,1,1c1.6,1.4,3,1.7,4.1,1.6C113.4,71.7,113.7,72.3,114.1,72.8z"/>
			<path class="st2" d="M107,70.5c-0.8,0.4-1.8-0.2-2.3-1.3l0,0c-0.5-1.1-0.3-2.3,0.5-2.6l5.6-2.6c0.8-0.4,1.8,0.2,2.3,1.3l0,0
				c0.5,1.1,0.3,2.3-0.5,2.7L107,70.5z"/>
			<path class="st2" d="M102,61.3c-0.8,0.4-1.8-0.2-2.3-1.3l0,0c-0.5-1.1-0.3-2.3,0.5-2.6l5.6-2.6c0.8-0.4,1.8,0.2,2.3,1.3l0,0
				c0.5,1.1,0.3,2.3-0.5,2.6L102,61.3z"/>
			<path class="st2" d="M98,51.2c-0.8,0.4-1.8-0.2-2.3-1.3l0,0c-0.5-1.1-0.3-2.3,0.5-2.6l5.6-2.6c0.8-0.4,1.8,0.2,2.3,1.3l0,0
				c0.5,1.1,0.3,2.3-0.5,2.6L98,51.2z"/>
			<path class="st2" d="M94.2,40.9c-0.8,0.4-1.8-0.2-2.3-1.3l0,0c-0.5-1.1-0.3-2.3,0.5-2.6l5.6-2.6c0.8-0.4,1.8,0.2,2.3,1.3l0,0
				c0.5,1.1,0.3,2.3-0.5,2.6L94.2,40.9z"/>
			<path class="st1" d="M95.3,94.4c0,0.4,0,0.8,0,1.2c-5.5-2-10.2-4.2-13.9-6.6c0-0.5,0-1,0-1.6c-0.1-5.1-0.4-13.5-1.9-16.6
				C77.9,67.3,41.8,38.1,24.3,24c0.4-0.3,0.7-0.7,1.1-1c0.3-0.2,0.5-0.5,0.8-0.7c17.3,14.2,49.2,40.3,58.2,46.4
				C94.1,75,95.3,88.4,95.3,94.4z"/>
			<path class="st1" d="M51.2,51.3c-0.8-0.6-16.2-11.7-30-24.4c0.5-0.5,1-0.9,1.5-1.4L51.2,51.3z"/>
		</g>
	</g>
</g>
</svg>
